<svg width="38" height="25" viewBox="0 0 38 25" fill="none" xmlns="http://www.w3.org/2000/svg">
<path d="M11.4555 1.33895L1.33047 11.7181C1.1125 11.9416 1 12.2371 1 12.4677C1 12.6984 1.10983 13.0579 1.32962 13.2829L11.4546 23.6621C11.8941 24.1126 12.6063 24.1126 13.0451 23.6621C13.4838 23.2116 13.4845 22.4815 13.0451 22.0317L4.83963 13.6203H35.875C36.4968 13.6203 37 13.1045 37 12.5319C37 11.8944 36.4968 11.3787 35.875 11.3787H4.83906L13.0445 2.96718C13.484 2.5167 13.484 1.78655 13.0445 1.33678C12.6051 0.887019 11.8914 0.88774 11.4555 1.33895Z" fill="white"/>
</svg>
