<svg width="38" height="25" viewBox="0 0 38 25" fill="none" xmlns="http://www.w3.org/2000/svg">
<path d="M26.5445 1.33895L36.6695 11.7181C36.8875 11.9416 37 12.2371 37 12.4677C37 12.6984 36.8902 13.0579 36.6704 13.2829L26.5454 23.6621C26.1059 24.1126 25.3937 24.1126 24.9549 23.6621C24.5162 23.2116 24.5155 22.4815 24.9549 22.0317L33.1604 13.6203H2.125C1.50316 13.6203 1 13.1045 1 12.5319C1 11.8944 1.50316 11.3787 2.125 11.3787H33.1609L24.9555 2.96718C24.516 2.5167 24.516 1.78655 24.9555 1.33678C25.3949 0.887019 26.1086 0.88774 26.5445 1.33895Z" fill="#667785"/>
</svg>
