<svg width="181" height="61" viewBox="0 0 181 61" fill="none" xmlns="http://www.w3.org/2000/svg">
<path d="M16.1609 42.5327L0 1.61084H10.7383L22.5826 34.1112H22.6588L34.503 1.61084H44.9821L28.8212 42.5327H16.1609Z" fill="white"/>
<path d="M65.2079 60.9896C62.3234 61.0032 59.4486 60.6538 56.6508 59.9493C54.1089 59.3275 51.6797 58.3106 49.4513 56.9356C47.5064 55.7515 45.7972 54.2162 44.41 52.4075L49.131 45.2633C50.1722 46.7992 51.5201 48.1015 53.0892 49.0878C54.7479 50.1463 56.5444 50.97 58.4278 51.5355C60.4061 52.1348 62.4627 52.4339 64.5292 52.4228C67.0918 52.4892 69.6356 51.9659 71.9652 50.893C73.9571 49.9591 75.6385 48.4693 76.8081 46.6019C77.9965 44.6022 78.5942 42.3051 78.5317 39.9779V36.3676H78.4478C77.1434 38.888 75.1725 40.9998 72.7512 42.4717C70.3298 43.9436 67.5513 44.7189 64.7198 44.7126C61.7645 44.7928 58.844 44.0572 56.2771 42.5862C53.8941 41.1618 51.9755 39.0729 50.7554 36.5742C49.4132 33.8131 48.7416 30.7726 48.7954 27.7014V1.61084H59.038V26.1639C59.001 27.9749 59.3711 29.7709 60.1209 31.4188C60.7905 32.8894 61.8749 34.1313 63.2403 34.9908C64.6964 35.8739 66.3744 36.3199 68.0755 36.2758C69.9201 36.2977 71.7352 35.8109 73.3227 34.8684C74.8991 33.9419 76.2121 32.625 77.136 31.044C78.1196 29.3233 78.6179 27.3667 78.5775 25.3837V1.61084H88.7362V40.2839C88.833 44.1501 87.8333 47.9644 85.8533 51.2831C83.8805 54.4362 81.0304 56.941 77.6546 58.4884C73.7458 60.2494 69.4915 61.1043 65.2079 60.9896V60.9896Z" fill="white"/>
<path d="M121.058 0.241715C123.73 0.16795 126.376 0.789862 128.738 2.04685C130.853 3.24083 132.576 5.02696 133.695 7.18695C134.928 9.66297 135.534 12.4058 135.457 15.1724V42.5327H125.298V17.8955C125.298 15.0144 124.536 12.7681 123.01 11.1567C122.203 10.3421 121.234 9.70719 120.165 9.29337C119.097 8.87955 117.954 8.69611 116.81 8.75499C114.815 8.7201 112.845 9.20223 111.09 10.1547C109.43 11.0706 108.056 12.4319 107.124 14.0863C106.126 15.9179 105.629 17.9814 105.683 20.0678V42.5327H95.4552V1.61088H105.69V8.83146H105.774C107.25 6.173 109.42 3.96774 112.051 2.45225C114.809 0.938747 117.915 0.176595 121.058 0.241715V0.241715Z" fill="white"/>
<path d="M155.302 43.8944C152.559 43.9542 149.834 43.4491 147.294 42.4105C145.157 41.5368 143.307 40.0793 141.955 38.2036C140.678 36.3995 140.005 34.2355 140.033 32.0233C140.033 28.4538 141.579 25.4834 144.67 23.1122C147.761 20.7411 152.429 19.2113 158.673 18.5229L167.718 17.4826C168.589 17.4343 169.418 17.095 170.074 16.5189C170.349 16.264 170.565 15.9534 170.71 15.6078C170.855 15.2621 170.924 14.8895 170.913 14.5148C170.936 13.2456 170.542 12.0041 169.792 10.981C168.957 9.9008 167.833 9.08104 166.551 8.61748C165.007 8.03086 163.366 7.7453 161.716 7.77612C159.871 7.75028 158.045 8.14796 156.377 8.93875C154.844 9.6597 153.502 10.7312 152.457 12.0672C151.492 13.2575 150.858 14.6824 150.619 16.1976L141.154 13.9641C141.489 11.3108 142.619 8.82203 144.396 6.82763C146.376 4.58464 148.874 2.86195 151.671 1.80993C154.847 0.578261 158.227 -0.0344001 161.632 0.00478915C165.121 -0.0638478 168.585 0.60596 171.798 1.97055C174.553 3.13189 176.913 5.06864 178.593 7.54664C180.229 10.0748 181.067 13.0392 180.996 16.0523V42.5329H170.974V35.4729H170.898C169.962 37.1639 168.715 38.6615 167.222 39.8864C165.619 41.2002 163.789 42.2063 161.822 42.8542C159.72 43.5559 157.517 43.9073 155.302 43.8944ZM158.741 36.4367C160.89 36.4699 163.016 35.9873 164.942 35.0293C166.713 34.1551 168.197 32.7909 169.22 31.0977C170.236 29.4173 170.764 27.4864 170.746 25.5217V23.5176L160.831 24.5579C157.099 25.0372 154.394 25.8276 152.716 26.9291C151.038 28.0305 150.197 29.4073 150.192 31.0595C150.199 31.8619 150.423 32.6473 150.839 33.3327C151.256 34.018 151.849 34.5778 152.556 34.9528C154.439 36.0184 156.582 36.5325 158.741 36.4367V36.4367Z" fill="white"/>
</svg>
